<svg xmlns="http://www.w3.org/2000/svg" viewBox="0 0 48 48" width="48" height="48">
	<style>
		tspan { white-space:pre }
		.shp0 { fill: #000000 } 
	</style>
	<g id="Layer">
		<path id="Layer" fill-rule="evenodd" class="shp0" d="M11.12 41.12C10.56 41.69 9.8 42.01 9 42.01C8.2 42.01 7.44 41.69 6.87 41.13C6.31 40.56 5.99 39.8 5.99 39C5.99 38.2 6.31 37.44 6.88 36.88L8.41 35.35C7.66 34.62 6.94 33.87 6.23 33.1C5.53 32.33 4.84 31.54 4.18 30.73C3.52 29.92 2.89 29.09 2.27 28.25C1.66 27.4 1.07 26.54 0.51 25.66C0.34 25.42 0.21 25.15 0.13 24.87C0.04 24.59 0 24.29 0 24C0 23.71 0.04 23.41 0.13 23.13C0.21 22.85 0.34 22.58 0.51 22.34C6.16 13.85 12.92 6 24 6C24.94 6 25.88 6.07 26.81 6.2C27.75 6.33 28.67 6.52 29.57 6.78C30.48 7.03 31.37 7.35 32.23 7.73C33.09 8.1 33.93 8.54 34.73 9.03L36.88 6.88C37.44 6.31 38.2 5.99 39 5.99C39.8 5.99 40.56 6.31 41.13 6.87C41.69 7.44 42.01 8.2 42.01 9C42.01 9.8 41.69 10.56 41.12 11.12L11.12 41.12ZM6.63 24C7.07 24.64 7.52 25.27 7.99 25.89C8.46 26.51 8.95 27.12 9.45 27.71C9.96 28.31 10.47 28.89 11.01 29.45C11.54 30.02 12.09 30.57 12.65 31.11L18.22 25.54C18.18 25.41 18.15 25.29 18.12 25.16C18.1 25.03 18.07 24.91 18.06 24.78C18.04 24.65 18.02 24.52 18.01 24.39C18.01 24.26 18 24.13 18 24C18 23.21 18.16 22.43 18.46 21.7C18.76 20.98 19.2 20.32 19.76 19.76C20.32 19.2 20.98 18.76 21.7 18.46C22.43 18.16 23.21 18 24 18C24.13 18 24.26 18.01 24.39 18.01C24.52 18.02 24.65 18.04 24.78 18.06C24.91 18.07 25.03 18.1 25.16 18.12C25.29 18.15 25.41 18.18 25.54 18.22L30.34 13.42C29.84 13.19 29.34 12.98 28.82 12.8C28.31 12.63 27.78 12.48 27.25 12.36C26.71 12.24 26.18 12.15 25.63 12.09C25.09 12.03 24.55 12 24 12C17.64 12 12.66 15.4 6.63 24Z" />
		<path id="Layer" class="shp0" d="M47.49 22.34C46.28 20.52 45 18.75 43.66 17.06L39.39 21.33C40.04 22.17 40.69 23.04 41.37 24C35.59 32.25 30.77 35.67 24.77 35.95L19.29 41.43C19.67 41.52 20.06 41.6 20.45 41.67C20.84 41.74 21.23 41.8 21.63 41.85C22.02 41.9 22.42 41.93 22.81 41.96C23.21 41.98 23.6 42 24 42C35.08 42 41.84 34.15 47.49 25.66C47.66 25.42 47.79 25.15 47.87 24.87C47.96 24.59 48 24.29 48 24C48 23.71 47.96 23.41 47.87 23.13C47.79 22.85 47.66 22.58 47.49 22.34Z" />
	</g>
</svg>